<svg width="300" height="300" viewBox="0 0 300 300" fill="none" xmlns="http://www.w3.org/2000/svg">
<path d="M293.01 287.48H7.06513C5.37501 287.48 4 286.105 4 284.414V271.094C4 269.404 5.37501 268.029 7.06513 268.029H293.039C294.729 268.029 296.104 269.404 296.104 271.094V284.414C296.076 286.105 294.7 287.48 293.01 287.48Z" fill="#F2F2F2"/>
<path d="M237.981 84.2642C254.197 84.2642 267.343 71.1183 267.343 54.902C267.343 38.6857 254.197 25.5397 237.981 25.5397C221.765 25.5397 208.619 38.6857 208.619 54.902C208.619 71.1183 221.765 84.2642 237.981 84.2642Z" stroke="#D3D3D3" stroke-width="0.286461" stroke-miterlimit="10" stroke-dasharray="3.42 3.42"/>
<path d="M283.443 69.2536V226.521C283.443 228.411 281.896 229.958 280.005 229.958H38.2321C36.3414 229.958 34.7945 228.411 34.7945 226.521V69.2536C34.7945 67.3629 36.3414 65.816 38.2321 65.816H280.005C281.896 65.816 283.443 67.3629 283.443 69.2536Z" stroke="#DCF2FF" stroke-width="1.4323" stroke-miterlimit="10"/>
<path d="M271.497 58.3394V215.606C271.497 217.497 269.95 219.044 268.06 219.044H26.2867C24.396 219.044 22.8491 217.497 22.8491 215.606V58.3394C22.8491 56.4488 24.396 54.9019 26.2867 54.9019H268.06C269.95 54.9019 271.497 56.4488 271.497 58.3394Z" fill="#DCF2FF"/>
<path d="M61.0344 77.7329C71.6908 77.7329 80.3705 86.4127 80.3705 97.069C80.3705 107.725 71.6908 116.405 61.0344 116.405C50.3781 116.405 41.6983 107.725 41.6983 97.069C41.6983 86.4127 50.3781 77.7329 61.0344 77.7329ZM61.0344 71.488C46.8832 71.488 35.4248 82.9465 35.4248 97.0976C35.4248 111.249 46.8832 122.707 61.0344 122.707C75.1856 122.707 86.644 111.249 86.644 97.0976C86.644 82.9465 75.1856 71.488 61.0344 71.488Z" fill="#0D4972"/>
<path d="M61.0344 71.488C46.8832 71.488 35.4248 82.9465 35.4248 97.0976C35.4248 111.249 46.8832 122.707 61.0344 122.707C75.1856 122.707 86.644 111.249 86.644 97.0976H80.3705C80.3705 107.754 71.6908 116.434 61.0344 116.434C50.3781 116.434 41.6983 107.754 41.6983 97.0976C41.6983 86.4413 50.3781 77.7615 61.0344 77.7615V71.488V71.488Z" fill="#2A94F4"/>
<path d="M127.78 101.366C128.439 109.874 122.051 117.35 113.514 118.009C105.006 118.668 97.5295 112.28 96.8706 103.744C96.2117 95.207 102.6 87.759 111.136 87.1001C119.644 86.4413 127.121 92.8294 127.78 101.366ZM132.764 100.965C131.876 89.6783 122.022 81.2277 110.735 82.0871C99.4488 82.9751 90.9982 92.8293 91.8575 104.116C92.7456 115.402 102.6 123.853 113.886 122.994C125.173 122.134 133.652 112.28 132.764 100.965Z" fill="#0D4972"/>
<path d="M132.764 100.965C131.876 89.6783 122.022 81.2277 110.735 82.0871C99.4488 82.9751 90.9982 92.8293 91.8575 104.116C92.7456 115.402 102.6 123.853 113.886 122.994L113.485 117.981C104.977 118.639 97.5008 112.251 96.842 103.715C96.1831 95.1783 102.571 87.7303 111.108 87.0715C119.616 86.4126 127.092 92.8007 127.751 101.337L132.764 100.965Z" fill="#2A94F4"/>
<path d="M257.747 90.8527H141.301V94.6626H257.747V90.8527Z" fill="#F9F9F9"/>
<path d="M217.442 99.9336H141.301V103.658H217.442V99.9336Z" fill="#F9F9F9"/>
<path d="M257.747 109.043H141.301V112.767H257.747V109.043Z" fill="#F9F9F9"/>
<path d="M257.747 118.124H141.301V121.848H257.747V118.124Z" fill="#F9F9F9"/>
<path d="M257.747 137.918H208.619V208.703H257.747V137.918Z" fill="#2A94F4"/>
<path d="M171.608 173.64L191.345 153.874C196.244 159.374 199.108 166.278 199.538 173.64H171.608Z" fill="#F9F9F9"/>
<path d="M143.822 149.549C149.809 144.22 157.428 141.298 165.478 141.298C173.556 141.298 181.176 144.22 187.134 149.52L165.478 171.205L143.822 149.549Z" fill="#2A94F4"/>
<path d="M195.384 179.799C194.525 195.726 181.319 208.388 165.163 208.388C148.434 208.388 134.884 194.838 134.884 178.109C134.884 170.346 137.806 163.241 142.618 157.885L142.647 157.913L164.533 179.799H195.384Z" fill="#FFBE55"/>
<path d="M80.4851 143.161H34.5367V147.858H80.4851V143.161Z" fill="#0069FF"/>
<path d="M112.311 151.411H34.5367V153.043H112.311V151.411Z" fill="#F9F9F9"/>
<path d="M112.311 155.908H34.5367V157.541H112.311V155.908Z" fill="#F9F9F9"/>
<path d="M112.311 160.405H34.5367V162.038H112.311V160.405Z" fill="#F9F9F9"/>
<path d="M112.311 164.903H34.5367V166.536H112.311V164.903Z" fill="#F9F9F9"/>
<path d="M74.7272 169.372H34.5367V171.004H74.7272V169.372Z" fill="#F9F9F9"/>
<path d="M80.4851 179.484H34.5367V184.182H80.4851V179.484Z" fill="#0069FF"/>
<path d="M112.311 187.763H34.5367V189.395H112.311V187.763Z" fill="#F9F9F9"/>
<path d="M112.311 192.26H34.5367V193.893H112.311V192.26Z" fill="#F9F9F9"/>
<path d="M112.311 196.729H34.5367V198.362H112.311V196.729Z" fill="#F9F9F9"/>
<path d="M112.311 201.226H34.5367V202.859H112.311V201.226Z" fill="#F9F9F9"/>
<path d="M74.7272 205.723H34.5367V207.356H74.7272V205.723Z" fill="#F9F9F9"/>
<path d="M108.329 121.934V118.783C108.329 118.783 107.183 115.632 106.037 113.34C106.897 113.626 108.329 115.632 108.329 115.632C108.329 115.632 108.902 110.762 108.329 109.616C112.053 112.767 112.053 113.913 112.053 113.913L110.621 119.069L110.907 123.08L108.329 121.934Z" fill="#FFE3CA"/>
<path d="M54.4745 195.554L52.7557 198.705C52.7557 198.705 49.3182 200.997 49.3182 202.143C49.3182 203.289 49.3182 204.721 49.3182 204.721L51.8963 207.872C51.8963 207.872 54.188 201.57 54.4745 201.856C54.7609 203.289 54.7609 205.007 55.3339 205.294C55.6203 203.575 54.7609 199.278 55.9068 197.846C57.0526 196.414 54.4745 195.554 54.4745 195.554Z" fill="#FFE3CA"/>
<path d="M59.4571 263.969L54.3168 263.566L53.4426 274.703L58.5829 275.107L59.4571 263.969Z" fill="#FFE3CA"/>
<path d="M53.4432 274.732C51.2661 276.852 49.6906 278.456 49.6046 279.602C51.4953 281.177 57.6828 282.81 60.662 281.321C61.2636 277.339 58.5708 275.133 58.5708 275.133L53.4432 274.732Z" fill="#0D4972"/>
<path d="M89.7092 263.732H84.5529V274.904H89.7092V263.732Z" fill="#FFE3CA"/>
<path d="M86.4148 183.38C89.8524 193.979 103.03 237.234 91.8576 268.458C87.131 271.753 81.9747 268.602 81.9747 268.602C81.9747 268.602 70.373 222.625 73.5241 204.005C76.6752 185.385 77.1049 183.38 77.1049 183.38H86.4148Z" fill="#0D4972"/>
<path d="M80.5424 140.983H76.3887V149.864H80.5424V140.983Z" fill="#FFE3CA"/>
<path d="M85.5268 138.806C85.5268 143.017 83.9226 146.455 80.5137 146.455C77.1048 146.455 73.209 143.046 73.209 138.806C73.209 134.595 75.959 131.158 79.3679 131.158C82.7767 131.158 85.5268 134.595 85.5268 138.806Z" fill="#FFE3CA"/>
<path d="M84.2664 131.272C83.3497 134.911 82.6622 143.361 77.6491 146.312C74.4694 147.916 65.1022 139.465 69.6569 131.96C74.2403 124.455 83.8081 129.239 84.2664 131.272Z" fill="#0E538C"/>
<path d="M72.8652 136.314C76.5198 136.314 79.4824 133.351 79.4824 129.697C79.4824 126.042 76.5198 123.08 72.8652 123.08C69.2106 123.08 66.2479 126.042 66.2479 129.697C66.2479 133.351 69.2106 136.314 72.8652 136.314Z" fill="#0E538C"/>
<path d="M76.3887 149.864C71.2324 150.437 63.7844 154.161 63.7844 154.161C63.7844 154.161 55.1906 186.817 53.4718 196.843C56.0499 198.562 56.9093 199.421 56.9093 199.421L66.649 167.338L70.373 183.38H86.4148L90.1388 162.755C90.1388 162.755 114.202 151.01 112.196 122.077C107.613 120.072 107.613 120.072 107.613 120.072C107.613 120.072 108.759 150.723 86.4148 150.15C86.4148 150.15 79.2533 148.718 76.3887 149.864Z" fill="#FFBE55"/>
<path d="M70.4016 183.38C60.3755 200.854 47.7712 245.255 52.3546 269.604C57.0812 273.472 60.9484 269.604 60.9484 269.604C60.9484 269.604 78.1361 232.078 77.8496 205.151C78.9955 189.109 77.8496 183.38 77.8496 183.38H70.4016Z" fill="#0D4972"/>
<path d="M84.5529 274.904C82.5476 277.196 81.1153 278.914 81.1153 280.06C83.1206 281.493 89.4227 282.638 92.2873 280.92C92.5738 276.909 89.7092 274.904 89.7092 274.904H84.5529Z" fill="#0D4972"/>
<path d="M276.31 250.039C273.961 239.011 266.656 229.156 256.83 223.656C262.101 233.596 268.375 242.964 275.594 251.615L276.31 250.039Z" fill="#1A87D8"/>
<path d="M278.945 254.193C269.578 241.102 264.88 224.716 265.883 208.646C271.956 223.484 276.539 238.925 279.547 254.651L278.945 254.193Z" fill="#2A94F4"/>
<path d="M276.281 254.651C275.995 246.602 275.708 238.466 276.969 230.503C278.229 222.539 281.151 214.661 286.565 208.674C287.396 225.175 283.385 241.875 275.221 256.227L276.281 254.651Z" fill="#1A87D8"/>
<path d="M276.653 255.367C271.383 240.128 272.242 222.883 279.002 208.245C283.242 223.542 279.489 239.755 275.737 255.167L276.653 255.367Z" fill="#B0E1FF"/>
<path d="M277.37 249.724C278.831 236.346 287.74 224.057 300 218.529C295.044 231.849 286.536 243.852 275.622 252.99L277.37 249.724Z" fill="#2A94F4"/>
<path d="M289.974 247.375L288.456 273.329C288.456 274.589 287.424 275.592 286.193 275.592H268.203C266.942 275.592 265.94 274.56 265.94 273.329L265.596 267.456L264.422 247.375C264.422 246.115 265.453 245.112 266.685 245.112H287.711C288.542 245.112 289.258 245.542 289.659 246.201C289.859 246.544 289.974 246.945 289.974 247.375Z" fill="#CCE9FF"/>
<path d="M289.974 247.375L288.456 273.329C288.456 274.589 287.424 275.592 286.193 275.592H268.203C266.942 275.592 265.94 274.56 265.94 273.329L265.596 267.456C273.989 265.05 282.64 254.68 289.659 246.201C289.859 246.544 289.974 246.945 289.974 247.375Z" fill="#CCE9FF"/>
<path d="M23.2502 258.862C21.7033 251.643 16.9481 245.198 10.5027 241.589C13.9402 248.091 18.0653 254.222 22.7919 259.893L23.2502 258.862Z" fill="#1A87D8"/>
<path d="M24.969 261.584C18.8387 253.018 15.7449 242.305 16.4038 231.763C20.3856 241.474 23.3934 251.586 25.3414 261.899L24.969 261.584Z" fill="#2A94F4"/>
<path d="M23.2216 261.87C23.0211 256.599 22.8492 251.271 23.68 246.057C24.5107 240.844 26.43 235.688 29.9821 231.763C30.5264 242.563 27.9196 253.505 22.5341 262.901L23.2216 261.87Z" fill="#1A87D8"/>
<path d="M23.4507 262.357C19.9846 252.388 20.5575 241.073 24.9976 231.505C27.7763 241.503 25.3127 252.13 22.8492 262.214L23.4507 262.357Z" fill="#B0E1FF"/>
<path d="M23.9091 258.662C24.8544 249.925 30.6982 241.847 38.7191 238.237C35.4535 246.974 29.8961 254.823 22.7632 260.81L23.9091 258.662Z" fill="#2A94F4"/>
<path d="M32.1879 257.115L31.1852 274.102C31.1852 274.933 30.5264 275.592 29.6957 275.592H17.9221C17.0914 275.592 16.4325 274.933 16.4325 274.102L16.2033 270.263L15.4299 257.115C15.4299 256.284 16.0888 255.625 16.9195 255.625H30.6983C31.2425 255.625 31.7009 255.912 31.9587 256.341C32.1019 256.571 32.1879 256.828 32.1879 257.115Z" fill="#CCE9FF"/>
<path d="M32.1878 257.115L31.1852 274.102C31.1852 274.933 30.5263 275.592 29.6956 275.592H17.9221C17.0913 275.592 16.4325 274.933 16.4325 274.102L16.2033 270.263C21.7034 268.688 27.3753 261.899 31.9587 256.341C32.1019 256.571 32.1878 256.828 32.1878 257.115Z" fill="#CCE9FF"/>
</svg>
