<svg width="300" height="300" viewBox="0 0 300 300" fill="none" xmlns="http://www.w3.org/2000/svg">
<path d="M246.881 197.293C269.038 197.293 287 179.331 287 157.174C287 135.017 269.038 117.055 246.881 117.055C224.724 117.055 206.763 135.017 206.763 157.174C206.763 179.331 224.724 197.293 246.881 197.293Z" stroke="#D3D3D3" stroke-width="0.27899" stroke-miterlimit="10" stroke-dasharray="3.32 3.32"/>
<path d="M79.934 54.8126C72.7639 57.9651 65.6218 61.7873 60.6 67.8135C55.5782 73.8396 53.0673 82.4883 56.0804 89.7141C60.0978 99.3672 72.8476 105.003 72.9313 115.465C72.9592 122.97 66.0403 128.689 59.0655 131.423C52.0908 134.157 44.3349 135.134 38.0018 139.123C28.4046 145.149 23.9129 156.783 22.0715 167.943C20.1744 179.549 20.9277 192.745 29.13 201.143C39.341 211.605 56.1919 210.433 70.6157 208.201C89.866 205.216 109.06 201.728 128.227 198.241C170.271 190.569 212.287 182.925 254.33 175.252C258.85 174.443 263.537 173.523 267.192 170.789C274.473 165.32 275.087 154.021 270.847 145.986C266.606 137.924 258.794 132.455 251.038 127.713C243.282 122.97 235.08 118.506 229.249 111.503C223.418 104.501 220.545 94.1501 224.953 86.1989C228.691 79.4473 236.698 75.8484 240.186 68.9852C244.789 59.946 239.488 48.3679 231.146 42.5928C222.777 36.7619 117.877 38.2127 79.934 54.8126Z" fill="#F7F7F7"/>
<path d="M273.999 287.49H20.7324C19.0305 287.49 17.6356 286.095 17.6356 284.393V268.351C17.6356 266.649 19.0305 265.254 20.7324 265.254H274.027C275.729 265.254 277.124 266.649 277.124 268.351V284.393C277.096 286.095 275.701 287.49 273.999 287.49Z" fill="#F2F2F2"/>
<path d="M270.623 44.3226V170.984C270.623 172.825 269.117 174.332 267.275 174.332H15.3479C13.5065 174.332 12 172.825 12 170.984V44.3226C12 42.4813 13.5065 40.9747 15.3479 40.9747H267.275C269.089 40.9747 270.623 42.4813 270.623 44.3226Z" stroke="#B0E1FF" stroke-width="0.836969" stroke-miterlimit="10"/>
<path d="M277.152 37.3479V164.009C277.152 165.85 275.645 167.357 273.804 167.357H21.8762C20.0349 167.357 18.5284 165.85 18.5284 164.009V37.3479C18.5284 35.5065 20.0349 34 21.8762 34H273.804C275.645 34 277.152 35.5065 277.152 37.3479Z" fill="#E9F7FF"/>
<path d="M277.152 36.204V45.4386H18.5284V36.204C18.5284 34.9765 20.0349 34 21.8762 34H273.804C275.645 34 277.152 35.0044 277.152 36.204Z" fill="#2390E2"/>
<path d="M268.112 42.6487C269.345 42.6487 270.344 41.6494 270.344 40.4168C270.344 39.1841 269.345 38.1849 268.112 38.1849C266.88 38.1849 265.88 39.1841 265.88 40.4168C265.88 41.6494 266.88 42.6487 268.112 42.6487Z" fill="#E9F7FF"/>
<path d="M260.58 42.6487C261.812 42.6487 262.812 41.6494 262.812 40.4168C262.812 39.1841 261.812 38.1849 260.58 38.1849C259.347 38.1849 258.348 39.1841 258.348 40.4168C258.348 41.6494 259.347 42.6487 260.58 42.6487Z" fill="#E9F7FF"/>
<path d="M253.047 42.6487C254.28 42.6487 255.279 41.6494 255.279 40.4168C255.279 39.1841 254.28 38.1849 253.047 38.1849C251.814 38.1849 250.815 39.1841 250.815 40.4168C250.815 41.6494 251.814 42.6487 253.047 42.6487Z" fill="#E9F7FF"/>
<path d="M35.2119 257.415C33.3148 248.571 27.4839 240.675 19.5885 236.24C23.8013 244.219 28.851 251.723 34.6261 258.642L35.2119 257.415Z" fill="#1A87D8"/>
<path d="M37.3323 260.735C29.8274 250.245 26.0611 237.104 26.8422 224.215C31.6967 236.1 35.3793 248.487 37.8065 261.125L37.3323 260.735Z" fill="#2A94F4"/>
<path d="M35.184 261.097C34.9608 254.625 34.7377 248.124 35.742 241.736C36.7464 235.347 39.0899 229.014 43.4421 224.243C44.1117 237.467 40.9033 250.859 34.3471 262.381L35.184 261.097Z" fill="#1A87D8"/>
<path d="M35.4909 261.683C31.2503 249.464 31.9478 235.626 37.3881 223.88C40.7917 236.128 37.7786 249.157 34.7655 261.516L35.4909 261.683Z" fill="#B0E1FF"/>
<path d="M36.0489 257.136C37.2207 246.423 44.3628 236.546 54.1832 232.11C50.1937 242.796 43.3863 252.421 34.6261 259.758L36.0489 257.136Z" fill="#2A94F4"/>
<path d="M46.1483 255.267L44.9208 276.079C44.9208 277.084 44.1117 277.893 43.1073 277.893H28.6836C27.6792 277.893 26.8702 277.084 26.8702 276.079L26.5912 271.364L25.6426 255.267C25.6426 254.262 26.4517 253.453 27.456 253.453H44.3349C45.0045 253.453 45.5625 253.816 45.8972 254.346C46.0646 254.597 46.1483 254.932 46.1483 255.267Z" fill="#CCE9FF"/>
<path d="M46.1483 255.267L44.9208 276.079C44.9208 277.084 44.1117 277.893 43.1073 277.893H28.6836C27.6792 277.893 26.8701 277.084 26.8701 276.079L26.5912 271.364C33.3148 269.439 40.2616 261.125 45.8972 254.318C46.0646 254.597 46.1483 254.932 46.1483 255.267Z" fill="#CCE9FF"/>
<path d="M148.482 131.088C164.506 131.088 177.497 118.098 177.497 102.073C177.497 86.0489 164.506 73.0585 148.482 73.0585C132.457 73.0585 119.467 86.0489 119.467 102.073C119.467 118.098 132.457 131.088 148.482 131.088Z" fill="#FFBE55"/>
<path d="M150.295 127.88C166.32 127.88 179.31 114.89 179.31 98.8651C179.31 82.8406 166.32 69.8502 150.295 69.8502C134.271 69.8502 121.28 82.8406 121.28 98.8651C121.28 114.89 134.271 127.88 150.295 127.88Z" stroke="white" stroke-width="0.27899" stroke-miterlimit="10"/>
<path d="M163.77 102.073L139.275 90.4675V113.679L163.77 102.073Z" fill="white"/>
<path d="M176.102 116.693L176.13 115.047C176.13 115.047 178.64 111.587 174.818 108.239C174.121 110.722 173.34 113.01 173.674 113.847C174.009 114.684 174.567 115.437 174.567 115.437L174.456 116.944L174.707 117.585L175.516 117.753L176.102 116.693Z" fill="#FFE3CA"/>
<path d="M119.188 115.186L119.383 113.596C119.383 113.596 117.402 109.913 121.531 107.179C121.894 109.69 122.34 111.978 121.894 112.759C121.448 113.54 120.834 114.182 120.834 114.182L120.75 115.66L120.415 116.246L119.606 116.302L119.188 115.186Z" fill="#FFE3CA"/>
<path d="M140.949 258.308C138.661 261.795 134.839 270.053 135.76 271.95C136.68 273.847 140.028 272.843 141.033 271.978C141.535 271.532 146.027 263.664 146.11 261.962C146.194 260.261 143.46 257.75 143.46 257.75L140.949 258.308Z" fill="#0A3E5B"/>
<path d="M138.717 252.812L141.061 261.098L144.129 260.93L143.627 250.914L138.717 252.812Z" fill="#FFE3CA"/>
<path d="M155.094 226.112C154.536 229.934 154.592 238.332 156.098 239.56C157.605 240.787 160.032 238.639 160.506 237.523C160.757 236.937 161.399 228.595 160.813 227.145C160.618 226.698 160.171 226.28 159.641 225.917C158.274 224.968 156.433 225.052 155.094 226.112Z" fill="#0A3E5B"/>
<path d="M148.565 227.312L155.652 229.934L155.875 226.587L149.681 222.151L148.565 227.312Z" fill="#FFE3CA"/>
<path d="M131.212 178.879C129.901 186.496 128.255 238.527 138.243 254.792C144.632 253.928 145.72 253.314 145.72 253.314C145.72 253.314 149.821 220.811 149.486 198.046C153.085 186.496 151.495 183.148 149.96 179.382C143.962 164.874 139.889 173.16 139.889 173.16L131.212 178.879Z" fill="#0A3E5B"/>
<path d="M138.689 177.68C133.639 182.953 116.426 208.09 122.006 213.697C127.585 219.305 151.076 231.553 151.076 231.553C151.244 229.042 153.141 222.513 153.141 222.513C153.141 222.513 143.683 205.941 135.369 207.169C140.279 204.658 146.138 198.325 150.211 193.471C153.225 189.872 153.42 184.71 150.714 180.888L146.947 175.615L138.689 177.68Z" fill="#0B4870"/>
<path d="M143.292 145.903C150.267 145.568 161.594 143.643 174.288 115.939C176.827 116.386 176.939 116.302 176.939 116.302C176.939 116.302 171.805 140.881 154.508 152.626C151.132 158.095 148.844 162.586 148.482 166.52C148.175 169.924 156.154 181.028 158.023 184.571C153.615 185.91 140.168 184.878 135.509 186.775C130.85 188.672 127.167 181.586 127.167 181.586C127.167 181.586 131.631 172.658 131.463 169.031C131.296 165.404 131.324 163.981 130.989 162.865C130.654 161.749 129.231 155.695 131.073 153.352C128.952 149.837 119.578 135.831 118.295 115.242C121.308 114.265 121.308 114.265 121.308 114.265C121.308 114.265 123.094 141.076 139.247 145.875C142.344 148.665 143.292 145.903 143.292 145.903Z" fill="#FFBE55"/>
<path d="M138.996 147.242L138.968 148.274C138.884 150.785 142.204 151.734 143.46 149.558L145.357 141.774L141.619 140.267L138.996 147.242Z" fill="#FCD2B1"/>
<path d="M154.843 140.825C152.918 137.031 154.759 132.093 152.667 128.382C151.327 126.011 148.565 124.672 145.859 124.728C143.153 124.783 140.558 126.095 138.633 128.02C137.741 128.912 136.959 129.917 135.927 130.614C134.895 131.312 133.472 131.646 132.384 131.033C131.742 130.67 131.296 130 130.515 129.861C130.18 129.805 129.845 129.889 129.622 130.14C129.148 130.67 129.566 131.395 129.985 131.925C130.766 132.93 131.575 133.962 132.384 134.966C133.388 136.222 134.504 137.533 136.067 137.896C137.183 138.175 138.382 137.924 139.498 138.175C140.726 138.454 141.73 139.291 142.735 140.044C144.52 141.355 146.501 142.471 148.705 142.806C150.881 143.141 153.28 142.611 154.871 141.048" fill="#0E538C"/>
<path d="M149.123 136.78C148.565 140.072 145.329 144.006 142.177 143.476C139.052 142.945 137.238 138.203 137.769 134.883C138.326 131.591 141.284 129.331 144.436 129.861C147.561 130.391 149.653 133.488 149.123 136.78Z" fill="#FFE3CA"/>
<path d="M140.531 129.247C141.507 133.292 145.078 136.557 149.179 137.198C149.458 137.254 149.765 137.254 149.988 137.115C150.407 136.836 150.295 136.194 150.128 135.72C149.542 133.962 148.928 132.204 147.868 130.698C146.808 129.191 145.19 127.964 143.348 127.824C142.288 127.741 141.088 128.131 140.698 129.108L140.531 129.247Z" fill="#0E538C"/>
<path d="M58.0891 87.008H31.0271C29.1858 87.008 27.6792 85.5014 27.6792 83.6601V56.5981C27.6792 54.7568 29.1858 53.2502 31.0271 53.2502H58.0891C59.9304 53.2502 61.437 54.7568 61.437 56.5981V83.6601C61.437 85.5014 59.9304 87.008 58.0891 87.008Z" fill="#B0E1FF"/>
<path d="M219.485 65.8048H187.68C186.508 65.8048 185.559 64.8562 185.559 63.6845V55.3427C185.559 54.1709 186.508 53.2224 187.68 53.2224H219.485C220.656 53.2224 221.605 54.1709 221.605 55.3427V63.6845C221.605 64.8562 220.656 65.8048 219.485 65.8048Z" fill="#B0E1FF"/>
<path d="M221.131 67.7577H189.326C188.154 67.7577 187.205 66.8092 187.205 65.6374V57.2956C187.205 56.1239 188.154 55.1753 189.326 55.1753H221.131C222.302 55.1753 223.251 56.1239 223.251 57.2956V65.6374C223.251 66.8092 222.302 67.7577 221.131 67.7577Z" stroke="white" stroke-width="0.27899" stroke-miterlimit="10"/>
<path d="M265.797 65.8048H233.992C232.82 65.8048 231.872 64.8562 231.872 63.6845V55.3427C231.872 54.1709 232.82 53.2224 233.992 53.2224H265.797C266.969 53.2224 267.917 54.1709 267.917 55.3427V63.6845C267.917 64.8562 266.969 65.8048 265.797 65.8048Z" fill="#B0E1FF"/>
<path d="M267.443 67.7577H235.638C234.466 67.7577 233.518 66.8092 233.518 65.6374V57.2956C233.518 56.1239 234.466 55.1753 235.638 55.1753H267.443C268.615 55.1753 269.563 56.1239 269.563 57.2956V65.6374C269.563 66.8092 268.615 67.7577 267.443 67.7577Z" stroke="white" stroke-width="0.27899" stroke-miterlimit="10"/>
<path d="M126.972 72.5006H69.2766C68.3559 72.5006 67.5747 71.7473 67.5747 70.7987V69.4317C67.5747 68.511 68.328 67.7299 69.2766 67.7299H126.999C127.92 67.7299 128.701 68.4831 128.701 69.4317V70.7987C128.673 71.7473 127.92 72.5006 126.972 72.5006Z" fill="#B0E1FF"/>
<path d="M117.067 79.7543H69.1092C68.2722 79.7543 67.5747 79.0568 67.5747 78.2198V76.5738C67.5747 75.7368 68.2722 75.0394 69.1092 75.0394H117.04C117.877 75.0394 118.574 75.7368 118.574 76.5738V78.2198C118.602 79.0568 117.904 79.7543 117.067 79.7543Z" fill="#B0E1FF"/>
<path d="M107.024 87.008H68.9418C68.1885 87.008 67.5747 86.3942 67.5747 85.641V83.6601C67.5747 82.9069 68.1885 82.2931 68.9418 82.2931H106.996C107.749 82.2931 108.363 82.9069 108.363 83.6601V85.641C108.391 86.3942 107.777 87.008 107.024 87.008Z" fill="#B0E1FF"/>
<path d="M266.215 145.038H187.54C186.452 145.038 185.587 144.145 185.587 143.085V142.248C185.587 141.16 186.48 140.295 187.54 140.295H266.215C267.303 140.295 268.168 141.188 268.168 142.248V143.057C268.168 144.145 267.275 145.038 266.215 145.038Z" fill="#B0E1FF"/>
<path d="M252.768 152.292H187.373C186.396 152.292 185.587 151.482 185.587 150.506V149.362C185.587 148.386 186.396 147.577 187.373 147.577H252.768C253.744 147.577 254.554 148.386 254.554 149.362V150.506C254.554 151.482 253.744 152.292 252.768 152.292Z" fill="#B0E1FF"/>
<path d="M239.153 159.545H187.205C186.313 159.545 185.587 158.82 185.587 157.927V156.393C185.587 155.5 186.313 154.775 187.205 154.775H239.153C240.046 154.775 240.771 155.5 240.771 156.393V157.927C240.771 158.82 240.046 159.545 239.153 159.545Z" fill="#B0E1FF"/>
<path d="M257.678 249.631C255.056 237.439 247.021 226.531 236.14 220.421C241.971 231.413 248.918 241.791 256.897 251.361L257.678 249.631Z" fill="#1A87D8"/>
<path d="M260.608 254.206C250.229 239.727 245.04 221.592 246.156 203.821C252.88 220.225 257.957 237.328 261.277 254.736L260.608 254.206Z" fill="#2A94F4"/>
<path d="M257.65 254.709C257.343 245.781 257.009 236.797 258.431 228.009C259.826 219.193 263.063 210.461 269.061 203.849C269.982 222.095 265.546 240.592 256.479 256.466L257.65 254.709Z" fill="#1A87D8"/>
<path d="M258.069 255.518C252.238 238.667 253.186 219.556 260.691 203.347C265.378 220.253 261.221 238.22 257.092 255.294L258.069 255.518Z" fill="#B0E1FF"/>
<path d="M258.85 249.268C260.468 234.482 270.344 220.867 283.875 214.729C278.379 229.488 268.977 242.768 256.897 252.867L258.85 249.268Z" fill="#2A94F4"/>
<path d="M272.799 246.674L271.125 275.41C271.125 276.805 269.982 277.921 268.615 277.921H248.695C247.3 277.921 246.184 276.777 246.184 275.41L245.793 268.909L244.482 246.674C244.482 245.279 245.626 244.163 246.993 244.163H270.261C271.181 244.163 271.962 244.665 272.409 245.39C272.66 245.753 272.799 246.199 272.799 246.674Z" fill="#CCE9FF"/>
<path d="M272.799 246.674L271.125 275.41C271.125 276.804 269.982 277.92 268.615 277.92H248.695C247.3 277.92 246.184 276.777 246.184 275.41L245.793 268.909C255.084 266.259 264.653 254.764 272.437 245.39C272.66 245.753 272.799 246.199 272.799 246.674Z" fill="#CCE9FF"/>
</svg>
