<svg width="300" height="300" viewBox="0 0 300 300" fill="none" xmlns="http://www.w3.org/2000/svg">
<path d="M245.681 139.773C260.4 139.773 272.332 127.841 272.332 113.122C272.332 98.4038 260.4 86.472 245.681 86.472C230.963 86.472 219.031 98.4038 219.031 113.122C219.031 127.841 230.963 139.773 245.681 139.773Z" stroke="#D3D3D3" stroke-width="0.264652" stroke-miterlimit="10" stroke-dasharray="3.22 3.22"/>
<path d="M195.159 43.2014C201.696 42.1957 209.318 44.9745 211.673 51.1409C215.564 61.2771 203.787 70.7516 202.596 81.5494C201.564 90.7858 208.683 99.1223 216.755 103.674C224.853 108.226 234.142 110.211 242.452 114.34C250.762 118.468 258.57 125.826 258.967 135.115C259.443 146.019 249.916 154.488 241.103 160.919C201.325 189.951 158.055 213.796 114.573 236.874C101.34 243.887 87.631 250.98 72.7046 252.171C62.489 252.991 50.3415 249.551 46.901 239.891C44.2545 232.48 47.7744 224.356 51.7442 217.581C61.1923 201.41 73.7632 187.066 88.5573 175.607C94.2737 171.161 100.44 167.059 104.78 161.263C109.147 155.467 111.397 147.421 108.247 140.911C103.351 130.722 89.4041 129.875 78.13 130.484C66.7499 131.092 55.3699 131.727 43.9899 132.336C40.3377 132.521 36.0768 132.442 33.9066 129.531C31.4718 126.276 33.1921 121.671 35.177 118.151C49.5476 92.7707 75.2188 75.3301 102.557 65.141C129.896 54.9519 158.055 47.3564 186.981 43.7836L195.159 43.2014Z" fill="#F7F7F7"/>
<path d="M144.875 74.8273C126.005 63.2356 104.542 55.9312 82.5232 53.6287C81.3058 53.4964 79.956 53.417 78.9239 54.0521C76.8861 55.296 77.2037 58.5512 78.818 60.3244C80.4059 62.0976 82.7878 62.918 84.8521 64.1089C86.9164 65.2999 88.9277 67.2583 88.769 69.6401C71.646 64.4 53.4379 62.6798 35.6268 64.6382C33.6155 64.8499 31.5247 65.1411 29.8309 66.2526C28.1372 67.3641 26.9198 69.4549 27.4755 71.4133C28.3754 74.4833 32.5304 74.8803 35.7327 74.6685L144.875 74.8273Z" fill="#CCE9FF"/>
<path d="M157.367 77.9237C146.304 71.1486 134.369 65.8027 121.93 62.0975C115.658 60.2185 109.253 58.7629 102.796 57.7308C99.7256 57.2544 96.4704 56.5663 93.3475 56.5928C91.2568 56.6192 89.563 57.7837 89.4042 59.9539C88.822 67.3112 100.758 66.1997 100.625 73.0806C100.784 72.9483 100.97 72.816 101.128 72.7101C88.8749 68.9785 76.0922 67.0201 63.2831 66.9142C59.9749 66.8877 56.6403 66.9936 53.3321 67.2053C50.5004 67.3906 47.5363 67.4964 44.7574 68.1845C42.5343 68.7403 40.3907 69.9577 39.5173 72.2073C38.8292 73.954 39.3056 75.9124 40.7876 77.0769C43.3812 79.1147 47.1393 78.506 50.2886 78.5324C53.7556 78.5324 57.2225 78.5324 60.663 78.5589C72.7047 78.5854 84.7199 78.6118 96.7615 78.6118C109.809 78.6383 122.856 78.6648 135.93 78.6648C140.614 78.6648 145.299 78.6912 149.983 78.6912C152.259 78.6912 154.614 78.9029 156.89 78.6912C156.996 78.6912 157.102 78.6912 157.182 78.6912C157.684 78.6912 157.684 77.8973 157.182 77.8973C151.73 77.8973 146.304 77.8708 140.853 77.8708C128.758 77.8443 116.663 77.8179 104.569 77.8179C92.1566 77.7914 79.7444 77.7649 67.3322 77.7649C60.9541 77.7649 54.5495 77.6326 48.1714 77.7385C45.6572 77.7649 41.9521 78.0561 40.4436 75.5419C38.5381 72.3396 42.2962 69.6401 44.9691 69.005C47.9862 68.2639 51.2414 68.1845 54.3114 67.9993C66.8559 67.2318 79.5062 68.2904 91.7596 71.0957C94.8296 71.8103 97.8731 72.6042 100.89 73.5305C101.155 73.6099 101.393 73.3982 101.393 73.16C101.499 67.1259 93.718 67.0995 90.9921 63.1297C90.304 62.124 89.9335 60.7478 90.2511 59.5304C90.7539 57.5985 92.6594 57.3867 94.3532 57.5191C97.3967 57.7573 100.44 58.2336 103.457 58.7365C115.578 60.7478 127.435 64.2677 138.682 69.1902C144.981 71.9426 151.068 75.1184 156.917 78.7177C157.42 78.8765 157.817 78.1884 157.367 77.9237Z" fill="#CCE9FF"/>
<path d="M276.54 165.206C268.997 156.79 258.464 151.1 247.296 149.38C248.381 152.026 250.074 154.435 252.218 156.34C227.897 156.631 204.766 141.731 180.603 144.59C179.015 144.775 177.269 145.172 176.395 146.495C174.913 148.85 177.428 151.762 179.968 152.953C182.509 154.117 185.632 155.07 186.532 157.716C181.424 157.955 176.316 158.219 171.182 158.457C170.308 158.51 169.356 158.563 168.668 159.145C167.397 160.231 168.085 162.507 169.541 163.353C170.996 164.2 172.77 164.068 174.437 163.883L276.54 165.206Z" fill="#CCE9FF"/>
<path d="M286.835 168.329C279.16 159.86 268.706 154.196 257.405 152.397C257.141 152.344 256.797 152.582 256.929 152.873C258.067 155.626 259.761 158.007 261.957 159.992C262.063 159.754 262.143 159.542 262.248 159.304C248.592 159.41 235.571 154.911 222.551 151.391C216.225 149.671 209.847 148.162 203.31 147.527C200.002 147.21 196.641 147.104 193.333 147.316C191.11 147.474 187.855 147.421 186.32 149.38C184.52 151.682 186.531 154.461 188.463 155.864C190.951 157.663 194.947 157.981 196.191 161.183C196.324 161.024 196.456 160.839 196.562 160.68C193.836 160.813 191.11 160.945 188.384 161.077C185.764 161.21 183.065 161.157 180.471 161.474C179.095 161.633 177.824 162.295 177.692 163.803C177.56 165.259 178.513 166.635 179.783 167.244C181.741 168.17 184.52 167.641 186.743 167.667C193.756 167.747 200.743 167.853 207.757 167.932C218.554 168.064 229.379 168.197 240.176 168.355C250.392 168.488 260.581 168.62 270.797 168.752C274.29 168.805 277.783 168.832 281.303 168.885C282.944 168.911 284.744 169.123 286.385 168.938C286.464 168.938 286.543 168.938 286.623 168.938C287.126 168.938 287.126 168.144 286.623 168.144C282.627 168.091 278.657 168.038 274.661 167.985C265.345 167.879 256.029 167.747 246.74 167.641C236.101 167.508 225.462 167.376 214.849 167.244C206.751 167.138 198.653 167.032 190.581 166.926C188.755 166.9 186.902 166.847 185.076 166.847C183.832 166.847 182.562 167.085 181.318 166.873C180.18 166.662 179.095 166.053 178.698 164.888C178.116 163.195 179.386 162.348 180.921 162.215C183.594 162.004 186.293 161.951 188.966 161.818C191.533 161.686 194.074 161.58 196.641 161.448C196.879 161.448 197.118 161.21 197.012 160.945C196.191 158.801 194.259 157.716 192.248 156.817C189.998 155.811 185.526 153.852 186.584 150.597C187.14 148.903 189.152 148.506 190.713 148.321C192.327 148.109 193.995 148.004 195.609 147.977C198.705 147.898 201.828 148.083 204.925 148.454C217.496 149.962 229.458 154.461 241.738 157.372C248.487 158.987 255.367 160.125 262.328 160.045C262.645 160.045 262.857 159.595 262.619 159.357C260.528 157.452 258.887 155.176 257.802 152.582C257.643 152.741 257.485 152.9 257.326 153.058C268.494 154.832 278.816 160.416 286.385 168.779C286.623 169.255 287.179 168.699 286.835 168.329Z" fill="#CCE9FF"/>
<path d="M236.577 51.485C235.836 53.1259 232.263 58.3395 229.432 59.0806C226.282 64.0295 218.766 74.4304 211.965 83.1904C206.857 89.7537 202.146 95.3643 199.949 97.0317C194.842 100.922 191.428 95.0468 191.428 95.0468C195.186 90.9182 203.363 82.0523 210.853 74.0863C218.025 66.4379 224.562 59.6099 226.018 58.4983C226.176 56.2752 231.972 49.5531 234.063 47.6211C236.154 45.6892 237.345 43.7572 237.345 43.7572C237.345 43.7572 237.054 48.2298 233.163 52.5437C234.063 52.0673 235.677 51.1939 236.577 51.485Z" fill="#FFA727"/>
<path d="M206.883 79.4322C206.169 75.5683 202.834 73.7952 198.997 72.9483C195.053 72.0749 190.978 73.6364 188.622 76.8916C187.061 79.0353 186.505 80.2527 184.573 82.0788C181.688 84.8047 177.083 84.4871 173.299 83.3491C169.514 82.2111 165.756 80.385 161.787 80.6496C158.214 80.8878 154.879 82.7933 151.28 82.7933C150.301 82.7933 149.348 82.6345 148.448 82.3434C141.726 80.1733 134.686 84.7782 133.654 91.765C133.045 95.8407 133.469 99.7575 135.427 103.172C137.862 107.432 152.709 109.47 157.42 110.846C162.131 112.223 167.344 111.773 171.79 109.656C177.269 107.035 181.768 101.981 187.802 101.398C190.925 101.107 194.021 102.086 197.118 102.642C200.214 103.198 203.655 103.277 206.195 101.425C209.53 98.99 210.033 94.2528 209.821 90.1507C209.583 86.3661 206.883 79.4322 206.883 79.4322Z" fill="#0B4870"/>
<path d="M198.52 95.2055L194.63 102.457L189.919 94.0146L193.545 90.3624L198.52 95.2055Z" fill="#FCD2B1"/>
<path d="M206.857 88.0335C206.354 92.9296 204.713 97.561 200.929 97.1905C197.118 96.82 192.963 93.8823 193.121 86.6573C193.624 81.7613 197.091 78.0826 200.902 78.4531C204.713 78.8236 207.36 83.111 206.857 88.0335Z" fill="#FFE3CA"/>
<path d="M203.84 79.7234C201.881 81.8406 195.847 94.7027 188.49 89.145C192.645 91.0769 195.186 69.5078 203.84 79.7234Z" fill="#0B4870"/>
<path d="M195.635 103.145C194.259 97.4021 194.18 92.559 185.976 91.1298C177.771 89.7007 125.476 117.754 96.1528 101.345C96.391 105.077 90.8333 115.901 92.5006 118.204C94.1679 120.506 97.8995 124.476 98.1377 127.202C98.3759 129.928 95.8882 143.346 98.3759 146.839C100.864 150.306 110.232 148.824 112.508 152.053C114.784 155.281 111.794 163.486 117.272 167.455C125.979 169.784 198.176 126.567 195.635 103.145Z" fill="#CCE9FF"/>
<path d="M187.855 118.204C179.227 120.877 172.055 128.155 168.667 133.024C168.059 133.898 167.556 134.718 167.212 135.38C164.909 139.826 164.909 139.826 164.909 139.826C164.909 139.826 163.613 123.365 157.896 121.141C160.093 120.348 162.395 118.786 164.698 116.775C174.04 108.597 183.461 93.1148 184.944 93.009C186.796 92.8766 193.386 94.0146 194.974 99.0166C195.424 101.954 195.927 104.812 195.953 107.406C196.059 112.223 194.445 116.166 187.855 118.204Z" fill="#FFBE55"/>
<path d="M168.694 133.051C168.085 133.924 167.582 134.744 167.238 135.406C164.936 139.852 164.936 139.852 164.936 139.852C164.936 139.852 163.639 123.391 157.923 121.168C160.119 120.374 162.422 118.812 164.724 116.801C167.238 120.321 168.271 126.593 168.694 133.051Z" fill="#ED9C26"/>
<path d="M169.832 111.085C168.191 112.276 166.683 113.546 165.306 114.869C155.144 124.714 152.047 137.576 152.047 137.576C152.047 137.576 149.03 137.576 148.607 134.983C149.851 126.726 155.329 118.416 161.654 111.376C162.395 112.805 166.206 112.62 169.832 111.085Z" fill="#2A94F4"/>
<path d="M160.569 175.078C158.134 174.892 152.338 174.548 145.484 174.151C130.214 173.278 109.729 172.14 109.729 172.14L120.554 167.509C120.554 167.509 125.873 168.329 126.852 168.699C129.234 168.064 134.739 166.053 141.276 165.418C144.822 165.074 148.66 165.127 152.471 166C153.265 163.486 149.189 149.671 152.471 144.934C155.752 140.17 164.804 138.529 164.804 138.529C166.762 147.289 166.55 164.65 160.569 175.078Z" fill="#0B4870"/>
<path d="M145.484 174.151C130.214 173.278 109.729 172.14 109.729 172.14L120.554 167.508C120.554 167.508 125.873 168.329 126.852 168.699C129.234 168.064 134.739 166.053 141.276 165.418C142.149 168.197 143.631 172.14 145.484 174.151Z" fill="#FFBE55"/>
<path d="M154.376 150.968C154.376 150.968 126.217 167.694 123.465 168.832C122.777 169.123 119.416 171.134 114.678 174.019C100.705 182.514 74.7954 198.605 70.3492 200.669C71.0373 197.467 77.4419 190.374 79.0563 189.686C80.6707 188.998 82.2586 185.108 82.4968 184.42C82.735 183.732 85.9372 184.181 91.2038 184.42C93.9297 180.794 97.3967 176.559 101.314 172.59C106.58 167.244 112.72 162.374 119.151 160.151C126.244 150.994 137.015 141.599 143.87 136.094C146.622 131.727 150.274 119.845 159.987 121.194C174.913 133.712 160.331 146.151 154.376 150.968Z" fill="#0E538C"/>
<path d="M114.678 173.992C100.705 182.488 74.7954 198.579 70.3492 200.643C71.0373 197.441 77.4419 190.348 79.0563 189.66C80.6707 188.972 82.2586 185.081 82.4968 184.393C82.735 183.705 85.9372 184.155 91.2038 184.393C93.9297 180.768 97.3967 176.533 101.314 172.563C105.151 173.278 109.968 173.939 114.678 173.992Z" fill="#FFBE55"/>
<path d="M180.021 105.897C176.157 107.168 172.77 108.994 169.832 111.085C169.197 111.535 168.588 112.011 168.006 112.487C167.053 113.255 166.153 114.049 165.306 114.869C164.936 115.24 164.565 115.61 164.195 115.981C155.011 125.588 152.1 137.365 152.047 137.603C152.047 137.603 150.407 137.603 149.374 136.571C149.057 136.253 148.792 135.83 148.66 135.3C148.633 135.221 148.607 135.115 148.607 135.036C149.718 127.625 154.244 120.189 159.722 113.652C160.357 112.911 160.993 112.17 161.654 111.429C171.261 100.79 182.879 93.1412 184.97 93.0353C187.511 93.6176 185.049 98.7254 180.021 105.897Z" fill="#FFA727"/>
<path d="M152.047 137.603C152.047 137.603 152.788 142.869 152.286 144.034C151.756 145.198 146.543 145.066 145.828 144.537C145.113 144.007 145.484 138.926 146.622 138.291C147.76 137.656 148.607 135.009 148.607 135.009L152.047 137.603Z" fill="#2A94F4"/>
<path d="M193.227 95.2849C195.715 100.102 195.768 101.398 195.635 103.145C191.772 98.4607 186.69 92.0561 184.176 92.4002C184.176 91.6592 189.998 92.6913 193.227 95.2849Z" fill="#CCE9FF"/>
<path d="M168.006 112.514C167.053 113.281 166.153 114.075 165.306 114.896C164.936 115.266 164.565 115.637 164.195 116.007C155.011 125.588 152.1 137.365 152.047 137.603C152.047 137.603 150.407 137.603 149.374 136.571L148.66 135.3C148.633 135.221 148.607 135.115 148.607 135.036C149.718 127.625 154.244 120.189 159.722 113.652C160.86 114.34 163.851 113.519 168.006 112.514Z" fill="#2A94F4"/>
<path d="M236.577 51.4851C235.836 53.1259 232.263 58.3396 229.432 59.0806C226.282 64.0296 218.766 74.4304 211.965 83.1904C211.541 79.697 211.171 76.627 210.853 74.0599C218.025 66.4114 224.562 59.5834 226.018 58.4719C226.176 56.2488 231.972 49.5267 234.063 47.5947C236.154 45.6627 237.345 43.7308 237.345 43.7308C237.345 43.7308 237.054 48.2034 233.163 52.5172C234.063 52.0673 235.677 51.194 236.577 51.4851Z" fill="#2A94F4"/>
<path d="M276.91 264.768H23.0295V287.396H276.91V264.768Z" fill="#F2F2F2"/>
<path d="M48.0656 225.229H23.0295V273.131H48.0656V225.229Z" fill="#F2F2F2"/>
<path d="M261.216 225.229H236.18V273.131H261.216V225.229Z" fill="#F2F2F2"/>
<path d="M276.91 273.105H251.874V244.893L276.91 234.254V273.105Z" fill="#F2F2F2"/>
<path d="M92.8182 232.719H70.905V273.131H92.8182V232.719Z" fill="#F2F2F2"/>
<path d="M128.837 232.719H117.881V273.131H128.837V232.719Z" fill="#F2F2F2"/>
<path d="M139.794 212.526H128.837V273.105H139.794V212.526Z" fill="#F2F2F2"/>
<path d="M150.301 221.736H139.344V273.105H150.301V221.736Z" fill="#F2F2F2"/>
<path d="M192.857 273.105H149.983V255.691C149.983 243.861 159.59 234.254 171.42 234.254C183.25 234.254 192.857 243.861 192.857 255.691V273.105Z" fill="#F2F2F2"/>
<path d="M73.1017 273.105H48.0656V225.229L73.1017 212.526V273.105Z" fill="#F2F2F2"/>
<path d="M117.881 273.105H92.8447V195.403L117.881 219.354V273.105Z" fill="#F2F2F2"/>
<path d="M208.074 273.105H189.866V216.654L208.074 234.042V273.105Z" fill="#F2F2F2"/>
<path d="M236.18 242.828H208.074V270.934H236.18V242.828Z" fill="#F2F2F2"/>
<path d="M231.178 218.666H213.05V246.772H231.178V218.666Z" fill="#F2F2F2"/>
<path d="M225.224 204.613H219.031V232.719H225.224V204.613Z" fill="#F2F2F2"/>
</svg>
