<svg width="300" height="300" viewBox="0 0 300 300" fill="none" xmlns="http://www.w3.org/2000/svg">
<path d="M45.3223 120.358C61.5709 120.358 74.743 107.185 74.743 90.9368C74.743 74.6882 61.5709 61.5161 45.3223 61.5161C29.0737 61.5161 15.9016 74.6882 15.9016 90.9368C15.9016 107.185 29.0737 120.358 45.3223 120.358Z" stroke="#D3D3D3" stroke-width="0.289005" stroke-miterlimit="10" stroke-dasharray="3.42 3.42"/>
<path d="M84.8004 76.0241C77.2862 79.3187 69.8299 83.307 64.5989 89.5784C59.3679 95.8498 56.7091 104.896 59.8592 112.468C64.0787 122.554 77.4018 128.45 77.4596 139.374C77.5174 147.206 70.2634 153.188 62.9805 156.05C55.6686 158.911 47.6054 159.922 40.9583 164.084C30.9298 170.355 26.2479 182.523 24.3116 194.198C22.3174 206.308 23.1267 220.093 31.7101 228.879C42.3744 239.803 59.9748 238.561 75.0609 236.249C95.1757 233.127 115.233 229.486 135.261 225.844C179.161 217.839 223.089 209.833 266.989 201.828C271.7 200.961 276.584 200.036 280.428 197.146C288.029 191.424 288.665 179.632 284.243 171.222C279.821 162.812 271.671 157.09 263.55 152.148C255.429 147.206 246.875 142.524 240.777 135.212C234.707 127.901 231.673 117.092 236.268 108.768C240.17 101.717 248.522 97.9596 252.192 90.7633C256.99 81.3129 251.47 69.2324 242.742 63.1922C234.014 57.1809 124.452 58.7127 84.8004 76.0241Z" fill="#F7F7F7"/>
<path d="M238.782 83.8272V194.921C238.782 196.539 237.569 197.869 236.095 197.869H34.1667C32.6928 197.869 31.4789 196.539 31.4789 194.921V83.8272C31.4789 82.2088 32.6928 80.8794 34.1667 80.8794H236.124C237.598 80.8794 238.782 82.2088 238.782 83.8272Z" fill="#E9F7FF"/>
<path d="M72.0842 133.594H43.0392C41.1317 133.594 39.5711 132.033 39.5711 130.126V101.081C39.5711 99.1734 41.1317 97.6128 43.0392 97.6128H72.0842C73.9916 97.6128 75.5523 99.1734 75.5523 101.081V130.126C75.5523 132.033 73.9916 133.594 72.0842 133.594Z" fill="#F8FDFF"/>
<path d="M238.782 82.8444V90.9366H31.5077V82.8444C31.5077 81.7751 32.7215 80.9081 34.1954 80.9081H236.123C237.597 80.8792 238.782 81.7751 238.782 82.8444Z" fill="#FFBE55"/>
<path d="M100.898 146.455H41.4496C40.4092 146.455 39.5711 145.617 39.5711 144.576C39.5711 143.536 40.4092 142.698 41.4496 142.698H100.898C101.938 142.698 102.777 143.536 102.777 144.576C102.777 145.617 101.938 146.455 100.898 146.455Z" fill="#F8FDFF"/>
<path d="M100.898 154.605H41.4496C40.4092 154.605 39.5711 153.766 39.5711 152.726C39.5711 151.686 40.4092 150.848 41.4496 150.848H100.898C101.938 150.848 102.777 151.686 102.777 152.726C102.777 153.766 101.938 154.605 100.898 154.605Z" fill="#F8FDFF"/>
<path d="M100.898 162.466H41.4496C40.4092 162.466 39.5711 161.627 39.5711 160.587C39.5711 159.547 40.4092 158.708 41.4496 158.708H100.898C101.938 158.708 102.777 159.547 102.777 160.587C102.777 161.599 101.938 162.466 100.898 162.466Z" fill="#F8FDFF"/>
<path d="M277.278 286.536H15.2947C13.4739 286.536 12 285.062 12 283.241V266.825C12 265.005 13.4739 263.531 15.2947 263.531H277.278C279.099 263.531 280.573 265.005 280.573 266.825V283.241C280.573 285.062 279.099 286.536 277.278 286.536Z" fill="#F2F2F2"/>
<path d="M86.3322 278.299C86.39 278.819 86.2455 279.426 85.7831 279.744C80.9856 276.074 76.1881 271.941 72.4021 267.259C72.1709 266.97 71.9397 266.652 71.9686 266.276C71.9975 265.987 72.142 265.756 72.3154 265.525C73.3847 264.109 74.4541 262.693 75.5234 261.276C75.9569 261.594 76.3904 261.883 76.8239 262.201C78.2689 263.213 79.7429 264.253 81.2746 265.12C81.2168 265.265 81.2168 265.38 81.1879 265.525C80.9567 266.681 81.9682 268.588 82.4017 269.6C83.4132 272.027 84.5114 274.426 85.7542 276.767C85.9854 277.258 86.2455 277.75 86.3322 278.299Z" fill="#FFBE55"/>
<path d="M72.8934 167.783C80.8411 189.661 93.2683 224.92 93.2683 227C93.2683 229.081 86.1877 261.132 89.4823 265.294C81.5058 267.606 60.9864 266.912 60.9864 266.912C65.1481 264.831 75.2922 228.85 74.7142 223.792C74.1362 218.706 59.2524 205.816 65.2926 188.967C71.3617 172.118 72.8934 167.783 72.8934 167.783Z" fill="#0A3E5B"/>
<path d="M71.0727 278.068C71.4484 278.443 71.6796 279.05 71.5062 279.542C67.9225 279.484 64.31 279.31 60.7552 278.877C59.0212 278.646 57.2871 278.357 55.5531 278.01C54.0792 277.721 53.4434 277.663 53.3856 275.929C53.3567 274.889 53.1255 271.421 53.9925 270.814C54.4549 270.496 55.9577 270.756 56.5357 270.727C57.4316 270.669 58.2987 270.611 59.1946 270.496C59.2524 270.64 59.3102 270.756 59.368 270.871C59.8593 271.941 61.7956 272.866 62.7782 273.444C65.0325 274.802 67.3445 276.074 69.7433 277.201C70.2057 277.461 70.697 277.692 71.0727 278.068Z" fill="#FFBE55"/>
<path d="M92.3145 149.807C93.326 148.796 95.5803 145.241 95.4069 144.056C94.1642 143.94 90.2915 148.015 90.2915 148.796L89.4823 150.385L90.9562 150.53L92.3145 149.807Z" fill="#FFD4B0"/>
<path d="M63.2984 133.883C65.5526 135.733 69.9744 180.182 89.8869 148.622C92.6324 149.576 92.2567 149.749 92.2567 149.749C92.2567 149.749 80.4364 178.592 61.1887 154.691C47.3453 135.935 63.2984 133.883 63.2984 133.883Z" fill="#FFBE55"/>
<path d="M89.0488 155.558L88.0084 152.697C87.9217 152.495 87.9506 152.264 88.0662 152.09L94.511 140.501C94.6266 140.299 94.8578 140.154 95.089 140.125L97.8345 139.981C98.4125 139.952 98.7883 140.559 98.4992 141.05L90.3782 155.674C90.0603 156.223 89.2511 156.136 89.0488 155.558Z" fill="#0E538C"/>
<path d="M89.3089 154.547L88.5286 152.553C88.4708 152.408 88.4708 152.235 88.5575 152.09L94.6555 141.108C94.7711 140.935 94.9445 140.819 95.1757 140.819L96.9965 140.848C97.43 140.848 97.6901 141.31 97.4878 141.715L90.2916 154.662C90.0604 155.009 89.4534 154.98 89.3089 154.547Z" fill="#E9F9FF"/>
<path d="M75.7257 154.402C74.8298 156.628 72.9801 163.159 72.8645 167.783V167.812L69.0785 168.65C66.1885 171.483 59.8593 177.985 56.3623 169.113C56.4201 168.188 56.449 167.35 56.4779 166.541C56.8825 154.142 55.0907 153.709 54.7728 148.362C54.426 142.669 53.5301 136.397 64.6857 133.681C67.778 137.091 70.0323 136.022 70.0323 136.022C71.5929 137.062 72.431 141.773 73.7315 145.645C74.9454 149.171 76.7661 151.83 75.7257 154.402Z" fill="#FFBE55"/>
<path d="M70.2635 132.871L69.512 136.311L68.0381 138.045L65.5816 134.605L68.4716 130.126L70.2635 132.871Z" fill="#FCD2B1"/>
<path d="M65.9862 128.825C65.8417 125.502 68.4138 118.768 71.9397 118.623C75.4656 118.479 78.4423 121.022 78.5868 124.346C78.7313 127.669 75.9858 130.473 72.4599 130.646C68.9341 130.791 66.1307 132.149 65.9862 128.825Z" fill="#0E538C"/>
<path d="M76.7372 129.981C75.6101 132.091 72.2287 134.606 69.8011 133.305C67.807 132.236 68.3561 128.276 69.4832 126.167C70.6103 124.057 73.1247 123.19 75.1477 124.259C77.1418 125.271 77.8643 127.843 76.7372 129.981Z" fill="#FFE3CA"/>
<path d="M72.4599 124.519C73.298 124.548 73.876 125.386 74.2228 126.166C74.5696 126.947 74.8875 127.814 75.639 128.218C76.2459 128.536 76.9973 128.45 77.6331 128.71C78.2111 128.941 78.6446 129.432 79.1359 129.837C79.6272 130.241 80.263 130.588 80.8699 130.415C81.3324 130.299 81.6792 129.895 81.8526 129.461C82.0549 129.028 82.0838 128.536 82.1416 128.074C82.2283 127.38 82.2861 126.6 81.9104 125.993C81.5347 125.386 80.8411 125.097 80.2052 124.866C79.107 124.432 78.0088 124.028 76.9106 123.594C76.1592 123.305 75.3789 122.987 74.5696 122.959C73.7315 122.901 72.8934 123.132 72.142 123.45C71.5062 123.71 70.8415 124.115 70.5525 124.75C70.2635 125.357 70.1479 126.542 70.8126 126.658C71.4773 126.745 72.4599 124.519 72.4599 124.519Z" fill="#0E538C"/>
<path d="M70.5814 124.693C70.2924 125.3 70.1768 126.802 70.8415 126.6C71.2461 126.484 72.4599 124.49 72.4599 124.49" fill="#0E538C"/>
<path d="M72.2287 124.953C70.986 126.976 70.0323 128.681 68.8763 127.612C68.8474 125.906 69.5121 123.999 69.5121 123.999L70.986 123.768H71.9686L72.2287 124.953Z" fill="#0E538C"/>
<path d="M70.2635 121.571C72.5619 121.571 74.4252 119.708 74.4252 117.41C74.4252 115.111 72.5619 113.248 70.2635 113.248C67.9651 113.248 66.1018 115.111 66.1018 117.41C66.1018 119.708 67.9651 121.571 70.2635 121.571Z" fill="#0E538C"/>
<path d="M70.4479 127.416C70.7138 126.58 70.5101 125.768 69.9929 125.604C69.4758 125.439 68.8409 125.984 68.575 126.821C68.3091 127.658 68.5128 128.469 69.03 128.633C69.5472 128.798 70.182 128.253 70.4479 127.416Z" fill="#FFE3CA"/>
<path d="M93.1237 151.397C94.1352 150.385 96.3895 146.83 96.2161 145.645C94.9733 145.53 92.5746 147.986 92.5746 147.986C92.5746 147.986 92.1122 148.044 92.4301 147.062C92.459 146.281 91.881 146.541 91.2452 148.507C91.1007 148.969 91.1296 149.605 91.1007 150.356L90.2914 151.946L91.7654 152.09L93.1237 151.397Z" fill="#FFE3CA"/>
<path d="M64.1366 135.472C66.3908 137.322 70.8126 181.771 90.7251 150.212C93.4706 151.165 93.0949 151.339 93.0949 151.339C93.0949 151.339 81.2746 180.182 62.0268 156.281C48.1546 137.524 64.1366 135.472 64.1366 135.472Z" fill="#FFBE55"/>
<path d="M70.6392 139.519L62.8361 136.166C61.9402 135.79 61.5356 134.75 61.9113 133.854L62.1136 133.392C62.4893 132.496 63.5297 132.091 64.4256 132.467L72.2288 135.819C73.1247 136.195 73.5293 137.235 73.1536 138.131L72.9513 138.594C72.5467 139.49 71.5351 139.923 70.6392 139.519Z" fill="#FFBE55"/>
<path d="M72.8934 167.783L72.7489 173.65L70.1479 269.889C70.1479 269.889 54.2815 274.657 42.2589 269.889C49.3395 263.213 55.8132 175.413 56.4779 166.512C56.5068 166.049 56.5357 165.789 56.5357 165.789L72.8934 167.783Z" fill="#0B4870"/>
<path d="M272.943 122.901H148.902C146.272 122.901 144.104 120.733 144.104 118.103C144.104 115.473 146.272 113.306 148.902 113.306H272.914C275.544 113.306 277.711 115.473 277.711 118.103C277.711 120.733 275.573 122.901 272.943 122.901Z" fill="#FFBE55"/>
<path d="M274.735 125.473H150.723C147.919 125.473 145.636 123.19 145.636 120.386C145.636 117.583 147.919 115.3 150.723 115.3H274.735C277.538 115.3 279.821 117.583 279.821 120.386C279.821 123.19 277.538 125.473 274.735 125.473ZM150.723 115.878C148.237 115.878 146.214 117.901 146.214 120.386C146.214 122.872 148.237 124.895 150.723 124.895H274.735C277.22 124.895 279.243 122.872 279.243 120.386C279.243 117.901 277.22 115.878 274.735 115.878H150.723Z" fill="#FFBE55"/>
<path d="M124.452 127.467C130.358 127.467 135.145 122.68 135.145 116.774C135.145 110.868 130.358 106.081 124.452 106.081C118.546 106.081 113.759 110.868 113.759 116.774C113.759 122.68 118.546 127.467 124.452 127.467Z" stroke="#B0E1FF" stroke-width="2.89005" stroke-miterlimit="10"/>
<path d="M116.157 126.398L110.204 118.277C109.684 117.554 109.828 116.572 110.551 116.051C111.273 115.531 112.256 115.676 112.776 116.398L116.764 121.86L136.417 106.138C137.11 105.589 138.093 105.705 138.642 106.399C139.191 107.092 139.076 108.075 138.382 108.624L116.157 126.398Z" fill="#FFBE55"/>
<path d="M124.452 158.333C130.358 158.333 135.145 153.545 135.145 147.64C135.145 141.734 130.358 136.946 124.452 136.946C118.546 136.946 113.759 141.734 113.759 147.64C113.759 153.545 118.546 158.333 124.452 158.333Z" stroke="#B0E1FF" stroke-width="2.89005" stroke-miterlimit="10"/>
<path d="M116.157 157.235L110.204 149.114C109.684 148.391 109.828 147.408 110.551 146.888C111.273 146.368 112.256 146.512 112.776 147.235L116.764 152.697L136.417 136.975C137.11 136.426 138.093 136.542 138.642 137.235C139.191 137.929 139.076 138.912 138.382 139.461L116.157 157.235Z" fill="#FFBE55"/>
<path d="M124.452 189.199C130.358 189.199 135.145 184.411 135.145 178.505C135.145 172.6 130.358 167.812 124.452 167.812C118.546 167.812 113.759 172.6 113.759 178.505C113.759 184.411 118.546 189.199 124.452 189.199Z" stroke="#B0E1FF" stroke-width="2.89005" stroke-miterlimit="10"/>
<path d="M255.718 248.965C253.233 237.405 245.603 227.029 235.257 221.249C240.777 231.682 247.395 241.537 254.967 250.612L255.718 248.965Z" fill="#1A87D8"/>
<path d="M258.493 253.329C248.666 239.572 243.724 222.376 244.765 205.498C251.152 221.076 255.949 237.289 259.128 253.849L258.493 253.329Z" fill="#2A94F4"/>
<path d="M255.689 253.791C255.4 245.323 255.082 236.798 256.412 228.445C257.741 220.093 260.805 211.799 266.498 205.527C267.365 222.868 263.174 240.41 254.562 255.467L255.689 253.791Z" fill="#1A87D8"/>
<path d="M256.094 254.543C250.545 238.532 251.47 220.411 258.579 205.036C263.001 221.105 259.071 238.156 255.14 254.34L256.094 254.543Z" fill="#B0E1FF"/>
<path d="M256.816 248.618C258.348 234.572 267.712 221.654 280.573 215.845C275.342 229.862 266.44 242.462 254.967 252.057L256.816 248.618Z" fill="#2A94F4"/>
<path d="M270.082 246.161L268.492 273.415C268.492 274.715 267.423 275.813 266.093 275.813H247.192C245.892 275.813 244.794 274.744 244.794 273.415L244.447 267.259L243.204 246.161C243.204 244.861 244.274 243.763 245.603 243.763H267.683C268.55 243.763 269.301 244.225 269.735 244.919C269.937 245.294 270.082 245.728 270.082 246.161Z" fill="#CCE9FF"/>
<path d="M270.082 246.161L268.492 273.415C268.492 274.715 267.423 275.813 266.093 275.813H247.193C245.892 275.813 244.794 274.744 244.794 273.415L244.447 267.259C253.262 264.745 262.365 253.82 269.735 244.919C269.937 245.294 270.082 245.728 270.082 246.161Z" fill="#CCE9FF"/>
<path d="M273.694 152.264H149.682C147.052 152.264 144.885 150.096 144.885 147.466C144.885 144.836 147.052 142.669 149.682 142.669H273.694C276.324 142.669 278.492 144.836 278.492 147.466C278.492 150.125 276.324 152.264 273.694 152.264Z" fill="#FFBE55"/>
<path d="M275.486 154.865H151.474C148.671 154.865 146.387 152.582 146.387 149.778C146.387 146.975 148.671 144.692 151.474 144.692H275.486C278.29 144.692 280.573 146.975 280.573 149.778C280.573 152.582 278.29 154.865 275.486 154.865ZM151.474 145.27C148.989 145.27 146.966 147.293 146.966 149.778C146.966 152.264 148.989 154.287 151.474 154.287H275.486C277.972 154.287 279.995 152.264 279.995 149.778C279.995 147.293 277.972 145.27 275.486 145.27H151.474Z" fill="#FFBE55"/>
<path d="M273.694 183.447H149.682C147.052 183.447 144.885 181.28 144.885 178.65C144.885 176.02 147.052 173.852 149.682 173.852H273.694C276.324 173.852 278.492 176.02 278.492 178.65C278.492 181.28 276.324 183.447 273.694 183.447Z" fill="#FFBE55"/>
<path d="M275.486 186.019H151.474C148.671 186.019 146.387 183.736 146.387 180.933C146.387 178.13 148.671 175.846 151.474 175.846H275.486C278.29 175.846 280.573 178.13 280.573 180.933C280.573 183.736 278.29 186.019 275.486 186.019ZM151.474 176.453C148.989 176.453 146.966 178.476 146.966 180.962C146.966 183.447 148.989 185.47 151.474 185.47H275.486C277.972 185.47 279.995 183.447 279.995 180.962C279.995 178.476 277.972 176.453 275.486 176.453H151.474Z" fill="#FFBE55"/>
</svg>
