<svg width="150" height="150" viewBox="0 0 150 150" fill="none" xmlns="http://www.w3.org/2000/svg">
<path d="M0 25C0 11.1929 11.1929 0 25 0H125C138.807 0 150 11.1929 150 25V125C150 138.807 138.807 150 125 150H25C11.1929 150 0 138.807 0 125V25Z" fill="#36A7FF"/>
<rect x="20" y="20" width="20" height="10" rx="5" fill="white" fill-opacity="0.5"/>
<rect x="20" y="40" width="40" height="10" rx="5" fill="white" fill-opacity="0.5"/>
<rect x="20" y="60" width="75" height="10" rx="5" fill="white"/>
<rect x="110" y="120" width="20" height="10" rx="5" fill="white" fill-opacity="0.5"/>
<rect x="90" y="100" width="40" height="10" rx="5" fill="white" fill-opacity="0.5"/>
<rect x="55" y="80" width="75" height="10" rx="5" fill="white"/>
</svg>
